<svg viewBox="0 0 32 32" fill="none" xmlns="http://www.w3.org/2000/svg">
<path d="M19.5541 4.5815C20.4711 4.19686 21.4556 3.99916 22.45 4C23.4442 4.00028 24.4284 4.19848 25.3453 4.58306C26.2621 4.96765 27.0931 5.53091 27.79 6.24C29.2081 7.68363 30.0027 9.62636 30.0027 
11.65C30.0027 13.6736 29.2081 15.6164 27.79 17.06L16 29L4.21002 17.06C2.7919 15.6164 1.99731 13.6736 1.99731 11.65C1.99731 9.62636 2.7919 7.68363 4.21002 6.24C4.90707 
5.53129 5.73822 4.96841 6.65503 4.58419C7.57184 4.19997 8.55596 4.0021 9.55002 4.0021C10.5441 4.0021 11.5282 4.19997 12.445 4.58419C13.3618 4.96841 14.193 5.53129 14.89 
6.24L16 7.36L17.11 6.24C17.8062 5.53 18.6372 4.96615 19.5541 4.5815Z" stroke="currentColor" stroke-width="2" fill="none"/>
</svg>
